<?xml version="1.0" encoding="UTF-8"?>
<!DOCTYPE svg PUBLIC "-//W3C//DTD SVG 1.1//EN" "http://www.w3.org/Graphics/SVG/1.1/DTD/svg11.dtd">
<svg xmlns="http://www.w3.org/2000/svg" version="1.1" width="312px" height="70px" style="shape-rendering:geometricPrecision; text-rendering:geometricPrecision; image-rendering:optimizeQuality; fill-rule:evenodd; clip-rule:evenodd" xmlns:xlink="http://www.w3.org/1999/xlink">
<g><path style="opacity:0.958" fill="#d5d5d5" d="M 45.5,13.5 C 50.2153,13.506 54.882,14.006 59.5,15C 65.9258,17.253 68.4258,21.753 67,28.5C 65.1522,31.0107 63.3189,33.5107 61.5,36C 63.4928,39.6508 65.4928,43.3175 67.5,47C 64.2336,48.9227 60.9002,48.9227 57.5,47C 55.7092,43.2486 53.5426,39.7486 51,36.5C 50.6667,40.1667 50.3333,43.8333 50,47.5C 44.4275,50.0439 41.2609,48.3772 40.5,42.5C 41.8151,34.6637 41.8151,26.8304 40.5,19C 40.8118,15.8611 42.4785,14.0277 45.5,13.5 Z M 50.5,22.5 C 52.8568,22.3367 55.1902,22.5034 57.5,23C 58.805,28.5244 56.4717,30.6911 50.5,29.5C 50.5,27.1667 50.5,24.8333 50.5,22.5 Z"/></g>
<g><path style="opacity:0.966" fill="#d7d7d7" d="M 120.5,31.5 C 120.586,30.5041 120.252,29.6708 119.5,29C 120.5,28.3333 121.5,28.3333 122.5,29C 122.336,32.7868 124.169,35.6201 128,37.5C 128.297,34.4234 127.131,31.9234 124.5,30C 126.513,29.1247 126.513,27.7913 124.5,26C 124.728,25.6012 125.062,25.4346 125.5,25.5C 127.137,27.3162 128.637,29.3162 130,31.5C 130.945,25.8593 131.445,20.1926 131.5,14.5C 134.604,13.1593 137.438,13.4926 140,15.5C 140.81,26.2135 140.643,36.8802 139.5,47.5C 136.894,48.6517 134.227,48.8184 131.5,48C 127.947,42.3854 124.28,36.8854 120.5,31.5 Z"/></g>
<g><path style="opacity:0.906" fill="#d8d8d7" d="M 187.5,13.5 C 189.5,13.8333 191.5,14.1667 193.5,14.5C 193.667,25.1719 193.5,35.8385 193,46.5C 190.36,48.5235 187.527,48.8568 184.5,47.5C 183.923,45.8944 183.59,44.2278 183.5,42.5C 184.415,33.1073 184.749,23.774 184.5,14.5C 185.791,14.7373 186.791,14.404 187.5,13.5 Z"/></g>
<g><path style="opacity:0.938" fill="#dad8d9" d="M 125.5,25.5 C 125.062,25.4346 124.728,25.6012 124.5,26C 126.513,27.7913 126.513,29.1247 124.5,30C 127.131,31.9234 128.297,34.4234 128,37.5C 124.169,35.6201 122.336,32.7868 122.5,29C 121.5,28.3333 120.5,28.3333 119.5,29C 120.252,29.6708 120.586,30.5041 120.5,31.5C 119.142,36.6276 118.142,41.961 117.5,47.5C 115.161,48.724 112.828,48.724 110.5,47.5C 109.856,42.2156 109.523,36.8823 109.5,31.5C 109.379,25.7273 109.879,20.0606 111,14.5C 113.877,13.1698 116.711,13.3364 119.5,15C 121.756,18.4056 123.756,21.9056 125.5,25.5 Z"/></g>
<g><path style="opacity:0.949" fill="#d6d6d6" d="M 209.5,13.5 C 216.806,12.8294 221.806,15.8294 224.5,22.5C 224.291,23.086 223.957,23.586 223.5,24C 222,24.1667 220.5,24.3333 219,24.5C 216.194,24.3741 213.86,23.3741 212,21.5C 208.569,24.0862 209.069,26.0862 213.5,27.5C 214.086,27.2907 214.586,26.9574 215,26.5C 218,28.8333 221,31.1667 224,33.5C 225.466,42.5462 221.633,47.8795 212.5,49.5C 208.972,48.8942 205.639,47.7275 202.5,46C 199.71,43.7897 198.877,40.9563 200,37.5C 204.895,36.0205 208.895,37.3539 212,41.5C 215.691,40.3252 216.191,38.4919 213.5,36C 209.419,34.5285 205.419,32.8618 201.5,31C 198.306,25.4009 198.972,20.4009 203.5,16C 205.723,15.4338 207.723,14.6005 209.5,13.5 Z"/></g>
<g><path style="opacity:0.937" fill="#d6d6d6" d="M 243.5,13.5 C 252.882,13.1824 259.216,17.3491 262.5,26C 260.5,26.5 258.5,27 256.5,27.5C 253.137,25.7812 249.804,24.1145 246.5,22.5C 243.729,22.7562 241.562,24.0896 240,26.5C 239.333,29.8333 239.333,33.1667 240,36.5C 243.971,41.6204 248.137,41.7871 252.5,37C 264.074,34.5735 265.407,37.5735 256.5,46C 245.713,51.4051 237.213,48.9051 231,38.5C 227.451,26.2357 231.618,17.9024 243.5,13.5 Z"/></g>
<g><path style="opacity:0.866" fill="#d5d4d4" d="M 93.5,15.5 C 97.3566,25.7348 101.023,36.0681 104.5,46.5C 104.132,47.91 103.299,48.91 102,49.5C 97.7826,49.1415 94.9493,46.9748 93.5,43C 89.1827,42.0188 85.1827,42.5188 81.5,44.5C 80.7611,44.631 80.0944,44.4643 79.5,44C 80.6171,42.1753 82.4504,40.3419 85,38.5C 84.8915,37.2312 85.0582,36.2312 85.5,35.5C 92.0991,35.684 93.0991,33.0174 88.5,27.5C 87.7025,27.9569 87.3691,28.6236 87.5,29.5C 86.3871,28.0536 86.2204,26.3869 87,24.5C 89.6678,25.9687 92.1678,25.4687 94.5,23C 91.7349,22.5791 90.5683,21.0791 91,18.5C 91.7199,20.2552 92.8866,21.0885 94.5,21C 93.624,19.414 92.624,17.914 91.5,16.5C 91.9569,15.7025 92.6236,15.3691 93.5,15.5 Z"/></g>
<g><path style="opacity:0.947" fill="#d8d7d7" d="M 93.5,15.5 C 92.6236,15.3691 91.9569,15.7025 91.5,16.5C 92.624,17.914 93.624,19.414 94.5,21C 92.8866,21.0885 91.7199,20.2552 91,18.5C 90.5683,21.0791 91.7349,22.5791 94.5,23C 92.1678,25.4687 89.6678,25.9687 87,24.5C 86.2204,26.3869 86.3871,28.0536 87.5,29.5C 86.2702,31.2972 85.6036,33.2972 85.5,35.5C 85.0582,36.2312 84.8915,37.2312 85,38.5C 82.4504,40.3419 80.6171,42.1753 79.5,44C 80.0944,44.4643 80.7611,44.631 81.5,44.5C 81.4709,47.6557 79.8043,49.3223 76.5,49.5C 74.6666,48.9479 72.9999,48.1145 71.5,47C 75.5251,36.5933 79.3584,26.0933 83,15.5C 86.6444,12.9808 90.1444,12.9808 93.5,15.5 Z"/></g>
<g><path style="opacity:0.99" fill="#d4d4d2" d="M 21.5,13.5 C 26.1191,14.3136 30.7858,14.6469 35.5,14.5C 35.8076,16.924 35.4742,19.2573 34.5,21.5C 32.9579,22.7468 31.4579,22.7468 30,21.5C 27.9479,22.7234 25.7812,23.7234 23.5,24.5C 23.7093,25.086 24.0426,25.586 24.5,26C 31.1227,25.1404 33.7894,27.9737 32.5,34.5C 29.5525,34.2229 26.7191,34.5562 24,35.5C 22.9378,39.637 22.1045,43.8036 21.5,48C 19.1009,48.711 16.7676,48.5443 14.5,47.5C 13.3354,40.1893 13.1687,32.856 14,25.5C 14.7444,20.3329 17.2444,16.3329 21.5,13.5 Z"/></g>
<g><path style="opacity:0.986" fill="#d5d5d5" d="M 282.5,13.5 C 293.839,14.0088 300.172,19.8421 301.5,31C 300.175,41.3279 294.341,47.4945 284,49.5C 268.64,45.3909 263.973,36.0575 270,21.5C 273.378,17.406 277.545,14.7393 282.5,13.5 Z M 280.5,22.5 C 289.639,21.4717 293.472,25.4717 292,34.5C 287.33,41.9773 282.33,42.3107 277,35.5C 275.668,30.4145 276.835,26.0812 280.5,22.5 Z"/></g>
<g><path style="opacity:0.916" fill="#d6d6d6" d="M 160.5,13.5 C 168.501,13.4886 174.168,16.9886 177.5,24C 177.588,26.7438 176.255,27.9105 173.5,27.5C 170.11,27.3045 167.443,25.8045 165.5,23C 158.3,21.5246 154.634,24.5246 154.5,32C 157.451,41.3164 162.451,42.6497 169.5,36C 172.167,35.3333 174.833,35.3333 177.5,36C 177.957,36.414 178.291,36.914 178.5,37.5C 170.957,49.9743 161.457,51.9743 150,43.5C 143.409,33.967 144.243,25.1336 152.5,17C 155.158,15.522 157.825,14.3554 160.5,13.5 Z"/></g>
</svg>
